<svg width="429" height="363" viewBox="0 0 429 363" fill="none" xmlns="http://www.w3.org/2000/svg">
  <path d="M428 181.638V347.465C428 352.724 420.733 363 410.524 363H17.4758C7.26736 363 0 352.724 0 347.465V182.638C0 177.369 7.26736 166 17.4758 166H410.524C420.733 166 428 176.369 428 181.638Z" fill="white"/>
  <path opacity="0.2" d="M428.209 184.485V229.816H8.9271e-07V184.485C-0.000753656 182.057 0.476827 179.653 1.40551 177.41C2.33419 175.167 3.69575 173.129 5.41238 171.412C7.129 169.696 9.16708 168.334 11.4101 167.406C13.6531 166.477 16.0571 165.999 18.4848 166H409.724C412.151 165.999 414.555 166.477 416.798 167.406C419.041 168.334 421.08 169.696 422.796 171.412C424.513 173.129 425.874 175.167 426.803 177.41C427.732 179.653 428.209 182.057 428.209 184.485Z" fill="#1976D2"/>
  <path d="M23.4836 210.269C30.3102 210.269 35.8443 204.735 35.8443 197.908C35.8443 191.081 30.3102 185.547 23.4836 185.547C16.6569 185.547 11.1228 191.081 11.1228 197.908C11.1228 204.735 16.6569 210.269 23.4836 210.269Z" fill="white"/>
  <path d="M59.4464 210.269C66.273 210.269 71.8072 204.735 71.8072 197.908C71.8072 191.081 66.273 185.547 59.4464 185.547C52.6198 185.547 47.0857 191.081 47.0857 197.908C47.0857 204.735 52.6198 210.269 59.4464 210.269Z" fill="white"/>
  <path d="M95.4093 210.269C102.236 210.269 107.77 204.735 107.77 197.908C107.77 191.081 102.236 185.547 95.4093 185.547C88.5826 185.547 83.0485 191.081 83.0485 197.908C83.0485 204.735 88.5826 210.269 95.4093 210.269Z" fill="white"/>
  <path d="M343.873 342.878C370.562 342.878 392.197 321.243 392.197 294.555C392.197 267.867 370.562 246.231 343.873 246.231C317.185 246.231 295.55 267.867 295.55 294.555C295.55 321.243 317.185 342.878 343.873 342.878Z" fill="#1976D2"/>
  <path d="M36.9912 269.231H240.78V262.039H36.9912V269.231Z" fill="#1976D2"/>

  <path opacity="0.2" d="M36.9912 286.763H240.78V279.57H36.9912V286.763Z" fill="#1976D2"/>
  <path opacity="0.2" d="M36.9912 304.295H240.78V297.102H36.9912V304.295Z" fill="#1976D2"/>
  <path opacity="0.2" d="M36.9912 321.827H240.78V314.634H36.9912V321.827Z" fill="#1976D2"/>

  <path d="M200.5 207C260.975 207 310 160.661 310 103.5C310 46.3385 260.975 0 200.5 0C140.025 0 91 46.3385 91 103.5C91 160.661 140.025 207 200.5 207Z" fill="#F9F9F9"/>
  <path d="M343.636 228L260.72 203.232C243.532 211.52 224.697 215.811 205.621 215.784C140.764 215.784 88 167.384 88 107.892C88 48.4002 140.764 0 205.621 0C270.478 0 323.242 48.4002 323.242 107.892C323.242 137.925 309.481 166.745 285.451 187.13L343.636 228ZM260.574 201.456L260.884 201.548L334.324 223.486L282.728 187.245L283.562 186.551C307.727 166.444 321.586 137.774 321.586 107.892C321.586 49.3153 269.564 1.65988 205.621 1.65988C141.678 1.65988 89.6566 49.3153 89.6566 107.892C89.6566 166.469 141.678 214.124 205.621 214.124C224.554 214.153 243.245 209.87 260.283 201.598L260.574 201.456Z" fill="#2F2E41" fill-opacity="0.5"/>
  <path d="M166.073 122.982C171.033 122.982 175.055 118.961 175.055 114C175.055 109.039 171.033 105.018 166.073 105.018C161.112 105.018 157.091 109.039 157.091 114C157.091 118.961 161.112 122.982 166.073 122.982Z" fill="#1976D2"/>
  <path d="M192.327 122.982C197.288 122.982 201.309 118.961 201.309 114C201.309 109.039 197.288 105.018 192.327 105.018C187.367 105.018 183.345 109.039 183.345 114C183.345 118.961 187.367 122.982 192.327 122.982Z" fill="#1976D2"/>
  <path d="M218.582 122.982C223.542 122.982 227.564 118.961 227.564 114C227.564 109.039 223.542 105.018 218.582 105.018C213.621 105.018 209.6 109.039 209.6 114C209.6 118.961 213.621 122.982 218.582 122.982Z" fill="#1976D2"/>
</svg>
