<svg width="188" height="176" viewBox="0 0 188 176" fill="none" xmlns="http://www.w3.org/2000/svg" xmlns:xlink="http://www.w3.org/1999/xlink">
  <g opacity="0.2">
    <path opacity="0.2" d="M2.8627 83.5L47.9627 128.6C48.0627 128.7 48.1627 128.8 48.2627 128.9L94.6627 175.3L94.6627 134L58.0627 97.4L94.6627 97.4L94.6627 59L73 36.4L94.6627 36.2L94.6627 -2.28882e-05L58.0627 36.4L42.0627 52.4C39.4627 55 39.4627 59.0999 42.0627 61.5999L55.5627 75.0999L34 74.2L19.0627 58.0999L2.96271 74.2C0.362709 76.8 0.362703 80.9 2.8627 83.5Z" fill="black" />
  </g>
  <rect x="182" y="123" width="176" height="64" transform="rotate(-180 182 123)" fill="url(#pattern0)" />
  <path d="M169.9 75.1L130.9 114.3L57.6 114.3L18.6 75.1" fill="#0E59C1" />
  <path d="M94.2 134L57.6 97.4L18.6 58.2L2.50003 74.3C-0.0999684 76.9 -0.0999688 81 2.50003 83.5L47.6 128.6C47.7 128.7 47.8 128.8 47.9 128.9L94.3 175.3L140.7 128.9C140.8 128.8 140.9 128.7 141 128.6L186 83.5C188.6 80.9 188.6 76.8 186 74.3L169.9 58.2" fill="#1976D2" />
  <path d="M94.2 36.3L130.9 36.4L112.9 55.1L94.2 36.3Z" fill="#0E59C1" />
  <path d="M94.2 36.3L57.6 36.4L75.5 55.1L94.2 36.3Z" fill="#0E59C1" />
  <path d="M136.347 49.0722C138.418 47.0013 138.418 43.7355 136.347 41.7443L123.603 29L94.45 58.1525L65.2975 29L52.5532 41.7442C50.4823 43.8152 50.4823 47.0809 52.5532 49.0722L94.5297 91.0487" fill="#1976D2" />
  <path d="M94.2 -2.22819e-05L57.6 36.4L94.2 36.3L130.9 36.4L94.2 -2.22819e-05Z" fill="#1976D2" />
</svg>
