<svg width="258" height="230" viewBox="0 0 258 230" fill="none" xmlns="http://www.w3.org/2000/svg">
  <path d="M116 209C175.094 209 223 163.781 223 108C223 52.2192 175.094 7 116 7C56.9055 7 6 52.2192 6 108C6 163.781 56.9055 209 116 209Z" fill="white"/>
  <path d="M256.636 229L173.72 204.232C156.532 212.52 137.697 216.811 118.621 216.784C53.7644 216.784 1 168.384 1 108.892C1 49.4002 53.7644 1 118.621 1C183.478 1 236.242 49.4002 236.242 108.892C236.242 138.925 222.481 167.745 198.451 188.13L256.636 229ZM173.574 202.456L173.884 202.548L247.324 224.486L195.728 188.245L196.562 187.551C220.727 167.444 234.586 138.774 234.586 108.892C234.586 50.3153 182.564 2.65988 118.621 2.65988C54.6781 2.65988 2.65664 50.3153 2.65664 108.892C2.65664 167.469 54.6781 215.124 118.621 215.124C137.554 215.153 156.245 210.87 173.283 202.598L173.574 202.456Z" stroke="white" stroke-width="2" stroke-linecap="round" stroke-linejoin="round"/>
  <path d="M79.0728 123.982C84.0333 123.982 88.0546 119.961 88.0546 115C88.0546 110.039 84.0333 106.018 79.0728 106.018C74.1122 106.018 70.0909 110.039 70.0909 115C70.0909 119.961 74.1122 123.982 79.0728 123.982Z" fill="#1976D2"/>
  <path d="M105.327 123.982C110.288 123.982 114.309 119.961 114.309 115C114.309 110.039 110.288 106.018 105.327 106.018C100.367 106.018 96.3455 110.039 96.3455 115C96.3455 119.961 100.367 123.982 105.327 123.982Z" fill="#1976D2"/>
  <path d="M131.582 123.982C136.542 123.982 140.564 119.961 140.564 115C140.564 110.039 136.542 106.018 131.582 106.018C126.621 106.018 122.6 110.039 122.6 115C122.6 119.961 126.621 123.982 131.582 123.982Z" fill="#1976D2"/>
</svg>
